<svg width="1200" height="675" viewBox="0 0 1200 675" fill="none" xmlns="http://www.w3.org/2000/svg">
<path d="M604.973 232.765H621.99L657.174 324.117H640.03L631.457 299.936H594.993L586.421 324.117H569.916L604.973 232.765ZM599.343 287.781H627.235L613.545 248.502H613.161L599.343 287.781Z" fill="black"/>
<path d="M655.052 257.97H670.917L687.678 308.764H687.934L704.055 257.97H719.152L695.483 324.117H679.106L655.052 257.97Z" fill="black"/>
<path d="M783.324 309.403C783.324 311.195 783.537 312.474 783.963 313.242C784.475 314.009 785.413 314.393 786.778 314.393C787.205 314.393 787.716 314.393 788.314 314.393C788.911 314.393 789.593 314.308 790.361 314.137V324.245C789.849 324.416 789.167 324.586 788.314 324.757C787.546 325.013 786.736 325.226 785.883 325.397C785.03 325.567 784.177 325.695 783.324 325.78C782.471 325.866 781.746 325.908 781.149 325.908C778.163 325.908 775.69 325.311 773.728 324.117C771.766 322.923 770.487 320.833 769.889 317.848C766.989 320.663 763.407 322.71 759.142 323.989C754.963 325.269 750.911 325.908 746.987 325.908C744.002 325.908 741.145 325.482 738.415 324.629C735.686 323.861 733.255 322.71 731.122 321.174C729.075 319.554 727.412 317.549 726.132 315.161C724.938 312.687 724.341 309.83 724.341 306.589C724.341 302.494 725.066 299.168 726.516 296.609C728.052 294.05 730.013 292.046 732.402 290.596C734.875 289.146 737.605 288.122 740.59 287.525C743.661 286.843 746.732 286.331 749.802 285.99C752.446 285.478 754.963 285.137 757.351 284.966C759.739 284.71 761.829 284.326 763.62 283.815C765.497 283.303 766.947 282.535 767.97 281.512C769.079 280.403 769.634 278.782 769.634 276.65C769.634 274.773 769.164 273.238 768.226 272.044C767.373 270.85 766.264 269.954 764.9 269.357C763.62 268.674 762.17 268.248 760.55 268.077C758.929 267.821 757.394 267.694 755.944 267.694C751.849 267.694 748.48 268.546 745.836 270.252C743.192 271.958 741.699 274.603 741.358 278.185H726.772C727.028 273.92 728.052 270.38 729.843 267.566C731.634 264.751 733.894 262.49 736.624 260.785C739.439 259.079 742.595 257.884 746.092 257.202C749.589 256.52 753.171 256.179 756.839 256.179C760.08 256.179 763.279 256.52 766.435 257.202C769.591 257.884 772.406 258.993 774.879 260.529C777.438 262.064 779.485 264.068 781.021 266.542C782.556 268.93 783.324 271.873 783.324 275.37V309.403ZM768.738 290.979C766.52 292.43 763.791 293.325 760.55 293.666C757.308 293.922 754.067 294.349 750.826 294.946C749.29 295.202 747.798 295.585 746.348 296.097C744.898 296.524 743.618 297.163 742.509 298.016C741.4 298.784 740.505 299.85 739.823 301.215C739.225 302.494 738.927 304.072 738.927 305.949C738.927 307.57 739.396 308.934 740.334 310.043C741.273 311.152 742.381 312.048 743.661 312.73C745.026 313.327 746.476 313.754 748.011 314.009C749.632 314.265 751.082 314.393 752.361 314.393C753.982 314.393 755.73 314.18 757.607 313.754C759.483 313.327 761.232 312.602 762.853 311.579C764.558 310.555 765.966 309.276 767.075 307.74C768.184 306.12 768.738 304.158 768.738 301.855V290.979Z" fill="black"/>
<path d="M799.402 232.765H813.987V324.117H799.402V232.765Z" fill="black"/>
<path d="M860.202 325.908C854.914 325.908 850.18 325.055 846.001 323.349C841.906 321.558 838.409 319.127 835.509 316.057C832.694 312.986 830.519 309.318 828.984 305.053C827.534 300.789 826.809 296.097 826.809 290.979C826.809 285.947 827.534 281.298 828.984 277.033C830.519 272.769 832.694 269.101 835.509 266.03C838.409 262.96 841.906 260.571 846.001 258.865C850.18 257.074 854.914 256.179 860.202 256.179C865.491 256.179 870.182 257.074 874.276 258.865C878.456 260.571 881.953 262.96 884.768 266.03C887.668 269.101 889.843 272.769 891.293 277.033C892.828 281.298 893.596 285.947 893.596 290.979C893.596 296.097 892.828 300.789 891.293 305.053C889.843 309.318 887.668 312.986 884.768 316.057C881.953 319.127 878.456 321.558 874.276 323.349C870.182 325.055 865.491 325.908 860.202 325.908ZM860.202 314.393C863.444 314.393 866.258 313.711 868.647 312.346C871.035 310.981 872.997 309.19 874.532 306.973C876.068 304.755 877.176 302.281 877.859 299.552C878.626 296.737 879.01 293.88 879.01 290.979C879.01 288.165 878.626 285.35 877.859 282.535C877.176 279.72 876.068 277.247 874.532 275.114C872.997 272.897 871.035 271.105 868.647 269.741C866.258 268.376 863.444 267.694 860.202 267.694C856.961 267.694 854.146 268.376 851.758 269.741C849.37 271.105 847.408 272.897 845.873 275.114C844.337 277.247 843.186 279.72 842.418 282.535C841.736 285.35 841.395 288.165 841.395 290.979C841.395 293.88 841.736 296.737 842.418 299.552C843.186 302.281 844.337 304.755 845.873 306.973C847.408 309.19 849.37 310.981 851.758 312.346C854.146 313.711 856.961 314.393 860.202 314.393Z" fill="black"/>
<path d="M905.722 257.97H919.54V267.694L919.796 267.949C922.013 264.282 924.913 261.424 928.496 259.377C932.078 257.245 936.045 256.179 940.395 256.179C947.645 256.179 953.36 258.055 957.539 261.808C961.719 265.561 963.809 271.191 963.809 278.697V324.117H949.223V282.535C949.052 277.332 947.943 273.579 945.896 271.276C943.849 268.888 940.651 267.694 936.301 267.694C933.827 267.694 931.609 268.163 929.647 269.101C927.686 269.954 926.022 271.191 924.658 272.811C923.293 274.347 922.227 276.181 921.459 278.313C920.691 280.445 920.307 282.706 920.307 285.094V324.117H905.722V257.97Z" fill="black"/>
<path d="M575.491 355.092H591.484V432.627H637.928V446.445H575.491V355.092Z" fill="black"/>
<path d="M702.312 431.731C702.312 433.523 702.525 434.802 702.952 435.57C703.464 436.337 704.402 436.721 705.767 436.721C706.193 436.721 706.705 436.721 707.302 436.721C707.899 436.721 708.581 436.636 709.349 436.465V446.573C708.837 446.743 708.155 446.914 707.302 447.085C706.534 447.341 705.724 447.554 704.871 447.724C704.018 447.895 703.165 448.023 702.312 448.108C701.459 448.193 700.734 448.236 700.137 448.236C697.152 448.236 694.678 447.639 692.716 446.445C690.754 445.251 689.475 443.161 688.878 440.176C685.978 442.99 682.395 445.038 678.131 446.317C673.951 447.596 669.899 448.236 665.976 448.236C662.99 448.236 660.133 447.81 657.404 446.957C654.674 446.189 652.243 445.038 650.111 443.502C648.064 441.882 646.4 439.877 645.121 437.489C643.927 435.015 643.33 432.158 643.33 428.916C643.33 424.822 644.055 421.496 645.505 418.937C647.04 416.378 649.002 414.373 651.39 412.923C653.864 411.473 656.593 410.45 659.579 409.853C662.649 409.17 665.72 408.659 668.791 408.317C671.435 407.806 673.951 407.464 676.339 407.294C678.728 407.038 680.817 406.654 682.609 406.142C684.485 405.631 685.935 404.863 686.959 403.839C688.068 402.731 688.622 401.11 688.622 398.977C688.622 397.101 688.153 395.566 687.215 394.371C686.362 393.177 685.253 392.282 683.888 391.685C682.609 391.002 681.159 390.576 679.538 390.405C677.917 390.149 676.382 390.021 674.932 390.021C670.838 390.021 667.468 390.874 664.824 392.58C662.18 394.286 660.687 396.93 660.346 400.513H645.761C646.016 396.248 647.04 392.708 648.831 389.893C650.622 387.079 652.883 384.818 655.612 383.112C658.427 381.406 661.583 380.212 665.08 379.53C668.577 378.847 672.16 378.506 675.828 378.506C679.069 378.506 682.267 378.847 685.423 379.53C688.579 380.212 691.394 381.321 693.868 382.856C696.427 384.392 698.474 386.396 700.009 388.87C701.544 391.258 702.312 394.201 702.312 397.698V431.731ZM687.726 413.307C685.509 414.757 682.779 415.653 679.538 415.994C676.297 416.25 673.055 416.676 669.814 417.274C668.279 417.529 666.786 417.913 665.336 418.425C663.886 418.852 662.607 419.491 661.498 420.344C660.389 421.112 659.493 422.178 658.811 423.543C658.214 424.822 657.915 426.4 657.915 428.277C657.915 429.897 658.384 431.262 659.323 432.371C660.261 433.48 661.37 434.375 662.649 435.058C664.014 435.655 665.464 436.081 666.999 436.337C668.62 436.593 670.07 436.721 671.349 436.721C672.97 436.721 674.719 436.508 676.595 436.081C678.472 435.655 680.22 434.93 681.841 433.906C683.547 432.883 684.954 431.603 686.063 430.068C687.172 428.447 687.726 426.486 687.726 424.183V413.307Z" fill="black"/>
<path d="M718.39 355.092H732.976V388.87H733.232C734.255 387.249 735.492 385.799 736.942 384.52C738.392 383.24 739.97 382.174 741.676 381.321C743.467 380.383 745.301 379.7 747.178 379.274C749.139 378.762 751.059 378.506 752.935 378.506C758.138 378.506 762.659 379.445 766.497 381.321C770.421 383.112 773.662 385.629 776.221 388.87C778.78 392.026 780.699 395.736 781.979 400.001C783.258 404.266 783.898 408.829 783.898 413.691C783.898 418.126 783.301 422.434 782.107 426.613C780.998 430.793 779.249 434.503 776.861 437.745C774.558 440.901 771.615 443.46 768.033 445.421C764.45 447.298 760.228 448.236 755.366 448.236C753.148 448.236 750.888 448.066 748.585 447.724C746.367 447.468 744.235 446.914 742.188 446.061C740.141 445.208 738.264 444.099 736.558 442.735C734.938 441.37 733.573 439.579 732.464 437.361H732.208V446.445H718.39V355.092ZM769.312 413.435C769.312 410.45 768.928 407.55 768.161 404.735C767.393 401.92 766.241 399.447 764.706 397.314C763.171 395.096 761.252 393.348 758.949 392.068C756.646 390.704 754.001 390.021 751.016 390.021C744.875 390.021 740.226 392.154 737.07 396.419C733.999 400.683 732.464 406.356 732.464 413.435C732.464 416.762 732.848 419.875 733.616 422.775C734.469 425.59 735.705 428.021 737.326 430.068C738.947 432.115 740.866 433.736 743.083 434.93C745.386 436.124 748.031 436.721 751.016 436.721C754.343 436.721 757.157 436.039 759.46 434.674C761.763 433.309 763.64 431.561 765.09 429.428C766.625 427.211 767.691 424.737 768.289 422.007C768.971 419.193 769.312 416.335 769.312 413.435Z" fill="black"/>
<path d="M807.226 425.206C807.652 429.471 809.273 432.456 812.088 434.162C814.902 435.868 818.272 436.721 822.195 436.721C823.56 436.721 825.095 436.636 826.801 436.465C828.592 436.209 830.256 435.783 831.791 435.186C833.326 434.589 834.563 433.736 835.501 432.627C836.525 431.433 836.994 429.897 836.909 428.021C836.824 426.144 836.141 424.609 834.862 423.415C833.582 422.221 831.919 421.282 829.872 420.6C827.91 419.832 825.65 419.193 823.091 418.681C820.532 418.169 817.93 417.615 815.286 417.018C812.557 416.421 809.913 415.696 807.354 414.843C804.88 413.99 802.62 412.838 800.573 411.388C798.611 409.938 797.033 408.104 795.839 405.886C794.644 403.583 794.047 400.769 794.047 397.442C794.047 393.86 794.9 390.874 796.606 388.486C798.397 386.012 800.615 384.051 803.259 382.601C805.989 381.065 808.974 379.999 812.216 379.402C815.542 378.805 818.698 378.506 821.683 378.506C825.095 378.506 828.337 378.89 831.407 379.658C834.563 380.34 837.378 381.492 839.852 383.112C842.411 384.733 844.5 386.865 846.121 389.51C847.827 392.068 848.893 395.182 849.319 398.85H834.094C833.412 395.352 831.791 393.007 829.232 391.813C826.759 390.618 823.901 390.021 820.66 390.021C819.636 390.021 818.4 390.107 816.949 390.277C815.585 390.448 814.263 390.789 812.983 391.301C811.789 391.727 810.766 392.41 809.913 393.348C809.06 394.201 808.633 395.352 808.633 396.802C808.633 398.594 809.23 400.044 810.424 401.152C811.704 402.261 813.324 403.2 815.286 403.967C817.333 404.65 819.636 405.247 822.195 405.759C824.754 406.27 827.398 406.825 830.128 407.422C832.772 408.019 835.374 408.744 837.932 409.597C840.491 410.45 842.752 411.601 844.713 413.051C846.761 414.501 848.381 416.335 849.575 418.553C850.855 420.771 851.495 423.5 851.495 426.741C851.495 430.665 850.599 433.992 848.808 436.721C847.016 439.451 844.671 441.668 841.771 443.374C838.956 445.08 835.8 446.317 832.303 447.085C828.806 447.852 825.351 448.236 821.939 448.236C817.76 448.236 813.879 447.767 810.296 446.829C806.799 445.89 803.729 444.483 801.084 442.607C798.525 440.645 796.478 438.256 794.943 435.442C793.493 432.542 792.725 429.13 792.64 425.206H807.226Z" fill="black"/>
<path d="M336.743 227H380.915L280.859 447.476H236.688L336.743 227Z" fill="black"/>
<path d="M425.11 227H380.938L480.993 447.476H525.165L425.11 227Z" fill="black"/>
<path d="M380.554 335.894L424.649 447.857H336.459L380.554 335.894Z" fill="black"/>
</svg>
